# Blender v3.2.0 OBJ File: 'asteroid.blend'
# www.blender.org
o Asteroid_1_Icosphere.002
v -0.000000 -1.031908 0.000000
v 0.730417 -0.451428 0.530673
v -0.251664 -0.407214 0.774555
v -0.836743 -0.418374 0.000000
v -0.244704 -0.395952 -0.753134
v 0.741283 -0.458144 -0.538567
v 0.277740 0.449407 0.854810
v -0.696976 0.430760 0.506377
v -0.753922 0.465955 -0.547750
v 0.296128 0.479161 -0.911405
v 0.829381 0.414693 0.000000
v -0.000000 0.897917 -0.000000
v -0.219811 -0.620033 0.676520
v -0.180908 -0.947277 0.556788
v -0.082556 -1.027255 0.254087
v 0.198242 -0.945349 0.144030
v 0.426152 -0.852312 0.309614
v 0.624138 -0.673577 0.453458
v 0.548689 -0.518416 0.703685
v 0.283050 -0.566100 0.871122
v -0.030345 -0.520221 0.894899
v 0.765426 -0.473066 -0.278658
v 0.893769 -0.552386 -0.000000
v 0.783408 -0.484179 0.284960
v 0.200961 -0.957792 -0.146005
v 0.494022 -0.988053 -0.358924
v 0.607134 -0.654864 -0.441104
v -0.766204 -0.668877 0.000000
v -0.502595 -0.813218 -0.000000
v -0.239289 -0.924046 -0.000000
v -0.474043 -0.492126 0.702218
v -0.560316 -0.428049 0.407092
v -0.800336 -0.483597 0.229648
v -0.252898 -0.715366 -0.778354
v -0.170461 -0.892574 -0.524635
v -0.083364 -1.036928 -0.256571
v -0.748989 -0.452333 -0.214259
v -0.577570 -0.441230 -0.419627
v -0.431688 -0.448713 -0.641011
v -0.030484 -0.523767 -0.900977
v 0.271730 -0.543460 -0.836283
v 0.467133 -0.439949 -0.596691
v 0.925584 0.243272 0.142651
v 0.928650 -0.000000 0.301732
v 0.899992 -0.262193 0.462800
v 0.809718 -0.236826 -0.416985
v 0.905664 0.000000 -0.294263
v 0.894866 0.235477 -0.137736
v 0.148248 0.239878 0.910976
v 0.000000 -0.000000 1.141669
v -0.182931 -0.295998 1.132234
v 0.661955 -0.242206 0.656432
v 0.684768 0.000000 0.942501
v 0.462111 0.265516 0.915220
v -0.919783 0.267754 0.472845
v -1.067861 -0.000000 0.346964
v -0.953764 -0.250423 0.147160
v -0.382338 -0.221622 0.759269
v -0.535090 0.000000 0.736488
v -0.730909 0.266680 0.725604
v -0.640118 0.234456 -0.634525
v -0.692322 -0.000000 -0.952898
v -0.498701 -0.285648 -0.986750
v -0.991041 -0.259883 -0.153125
v -1.054088 -0.000000 -0.342489
v -0.777365 0.227734 -0.400565
v 0.438300 0.252414 -0.868671
v 0.537697 -0.000000 -0.740076
v 0.663525 -0.242764 -0.658007
v -0.154446 -0.249908 -0.950518
v 0.000000 0.000000 -1.125478
v 0.171476 0.277463 -1.059157
v 0.803373 0.485447 0.230558
v 0.704286 0.538033 0.511692
v 0.555651 0.575771 0.820147
v 0.027822 0.456137 0.785055
v -0.269047 0.538094 0.828026
v -0.493919 0.465721 0.631832
v -0.808931 0.499953 0.293906
v -0.808077 0.499425 0.000000
v -0.768742 0.475115 -0.279820
v -0.485418 0.457541 -0.620679
v -0.214317 0.428634 -0.659586
v 0.029365 0.495343 -0.852255
v 0.497447 0.516114 -0.736038
v 0.708406 0.541180 -0.514685
v 0.938589 0.567776 -0.271083
v 0.074675 0.932825 0.229830
v 0.142443 0.745865 0.438403
v 0.257237 0.727868 0.791708
v 0.655116 0.569972 -0.000000
v 0.590879 0.956066 0.000000
v 0.247418 0.954144 0.000000
v -0.214803 1.021136 0.156062
v -0.371854 0.743715 0.270164
v -0.568476 0.612320 0.413017
v -0.176789 0.847167 -0.128443
v -0.368093 0.736194 -0.267432
v -0.613008 0.661329 -0.445371
v 0.083320 1.036406 -0.256437
v 0.175151 0.917131 -0.539069
v 0.236773 0.668905 -0.728726
v 0.368643 0.910976 -0.267834
v 0.682097 0.774171 -0.281455
v 0.418837 0.677704 -0.493033
v -0.153329 0.990230 -0.471889
v -0.060453 0.817777 -0.776647
v -0.395624 0.793150 -0.643955
v -0.478190 0.955039 0.000000
v -0.558970 0.601855 -0.136534
v -0.753201 0.813294 0.181552
v -0.151654 0.979625 0.466734
v -0.364232 0.728606 0.591813
v -0.061855 0.835006 0.792833
v 0.354836 0.877588 0.257803
v 0.483980 0.783109 0.568102
v 0.658842 0.747390 0.271608
v 0.796861 0.255808 -0.392609
v 0.789825 -0.000211 -0.573837
v 0.608581 0.251361 -0.625372
v -0.127749 0.256918 -0.883051
v -0.371525 0.001794 -1.143437
v -0.443217 0.273926 -0.842890
v -1.040261 0.303088 -0.177636
v -0.948924 -0.000453 0.000000
v -0.929078 0.271194 0.159500
v -0.476659 0.294594 0.907779
v -0.281296 -0.000797 0.865739
v -0.142195 0.283846 0.977062
v 0.648787 0.267533 0.665952
v 0.720403 -0.000974 0.523400
v 0.814155 0.261289 0.401322
v 0.312246 -0.000093 -0.960994
v 0.444768 -0.274885 -0.845899
v 0.115473 -0.234030 -0.803150
v -0.718164 0.000996 -0.521774
v -0.618705 -0.255434 -0.635593
v -0.928838 -0.297647 -0.459091
v -0.870968 -0.000679 0.632792
v -0.904549 -0.289947 0.446856
v -0.577391 -0.238815 0.593896
v 0.302508 0.000187 0.931023
v 0.140501 -0.280689 0.966036
v 0.434999 -0.268847 0.826943
v 0.947938 0.000462 0.000000
v 1.012797 -0.295210 0.173156
v 0.890302 -0.260070 -0.153174
v 0.336102 -0.670766 -0.545088
v 0.121766 -0.790408 -0.374755
v 0.044659 -0.623711 -0.594336
v -0.415135 -0.671712 -0.488764
v -0.375076 -0.926532 -0.272507
v -0.553520 -0.626095 -0.227007
v -0.690244 -0.783551 0.284904
v -0.323855 -0.802663 0.235295
v -0.378780 -0.612886 0.446871
v 0.660725 -0.712624 -0.160118
v 0.629307 -0.678422 0.152837
v 0.495284 -0.988479 0.000001
v 0.052443 -0.719341 0.684174
v 0.154488 -0.997555 0.475452
v 0.370064 -0.740593 0.601498
vt 0.504379 0.495799
vt 0.513891 0.555457
vt 0.450580 0.523280
vt 0.550525 0.785237
vt 0.538313 0.708639
vt 0.620292 0.743223
vt 0.461618 0.453124
vt 0.531751 0.441944
vt 0.564057 0.505189
vt 0.616976 0.845982
vt 0.243367 0.629127
vt 0.304884 0.682496
vt 0.206130 0.711097
vt 0.296919 0.288760
vt 0.265172 0.363759
vt 0.207455 0.278675
vt 0.637177 0.234516
vt 0.556037 0.227498
vt 0.619121 0.146314
vt 0.793911 0.541356
vt 0.775512 0.462020
vt 0.872217 0.496928
vt 0.506256 0.863633
vt 0.155128 0.611251
vt 0.286653 0.199317
vt 0.719070 0.197112
vt 0.854790 0.607684
vt 0.371406 0.757225
vt 0.452543 0.764282
vt 0.406583 0.688095
vt 0.214818 0.450311
vt 0.233179 0.529655
vt 0.291434 0.462403
vt 0.458319 0.206545
vt 0.388532 0.248526
vt 0.470495 0.283148
vt 0.765403 0.362800
vt 0.703910 0.309401
vt 0.696311 0.398052
vt 0.711690 0.703142
vt 0.743473 0.628158
vt 0.656813 0.648325
vt 0.547069 0.538700
vt 0.558140 0.468549
vt 0.504328 0.496005
vt 0.599551 0.591125
vt 0.614812 0.513442
vt 0.679632 0.568883
vt 0.624216 0.434836
vt 0.693556 0.480659
vt 0.765757 0.537266
vt 0.772548 0.443928
vt 0.494844 0.436342
vt 0.555052 0.396317
vt 0.627810 0.351801
vt 0.483200 0.363082
vt 0.548207 0.311296
vt 0.624354 0.260121
vt 0.537683 0.224819
vt 0.444655 0.486586
vt 0.425194 0.416957
vt 0.405340 0.334004
vt 0.371382 0.475021
vt 0.342219 0.397193
vt 0.317079 0.308959
vt 0.256723 0.380478
vt 0.476930 0.549847
vt 0.404695 0.546838
vt 0.319667 0.540085
vt 0.443289 0.615960
vt 0.360258 0.619644
vt 0.268574 0.616287
vt 0.317941 0.695790
vt 0.521885 0.606470
vt 0.489188 0.685249
vt 0.577397 0.671230
vt 0.545873 0.757389
vt 0.636741 0.735006
vt 0.801149 0.713269
vt 0.929636 0.712496
vt 0.843562 0.610777
vt 0.975675 0.569956
vt 0.929849 0.711971
vt 0.975973 0.570445
vt 0.862420 0.491292
vt 0.975675 0.420729
vt 0.975638 0.421027
vt 0.853633 0.380718
vt 0.802679 0.280848
vt 0.841648 0.158411
vt 0.718310 0.208839
vt 0.720544 0.070485
vt 0.841447 0.157952
vt 0.720869 0.070447
vt 0.610501 0.153982
vt 0.578622 0.024372
vt 0.578662 0.024593
vt 0.502625 0.128170
vt 0.391896 0.145769
vt 0.287493 0.070872
vt 0.297341 0.203756
vt 0.166680 0.158785
vt 0.287226 0.070829
vt 0.166513 0.158557
vt 0.211854 0.289336
vt 0.078969 0.279509
vt 0.078960 0.279632
vt 0.153970 0.383954
vt 0.136491 0.494701
vt 0.032997 0.570852
vt 0.162420 0.602549
vt 0.079506 0.712827
vt 0.033104 0.570999
vt 0.079005 0.713009
vt 0.217395 0.710299
vt 0.167218 0.833552
vt 0.167100 0.833692
vt 0.289495 0.794590
vt 0.389421 0.845436
vt 0.429862 0.967396
vt 0.500003 0.854103
vt 0.579493 0.966942
vt 0.430267 0.967246
vt 0.579280 0.967569
vt 0.619468 0.835115
vt 0.721415 0.920829
vt 0.721280 0.921077
vt 0.721914 0.792590
vt 0.929304 0.279178
vt 0.846236 0.389093
vt 0.929599 0.278594
vt 0.791211 0.281369
vt 0.740076 0.375405
vt 0.690671 0.295925
vt 0.429437 0.024826
vt 0.508535 0.137699
vt 0.429204 0.024270
vt 0.389079 0.156743
vt 0.462710 0.234434
vt 0.371853 0.256860
vt 0.033067 0.421626
vt 0.165090 0.381188
vt 0.032699 0.421582
vt 0.146289 0.500682
vt 0.242930 0.454661
vt 0.236183 0.548002
vt 0.287962 0.921216
vt 0.290533 0.783065
vt 0.288039 0.921459
vt 0.398368 0.837872
vt 0.384465 0.731740
vt 0.471152 0.767000
vt 0.841867 0.833178
vt 0.711504 0.787950
vt 0.842354 0.833087
vt 0.796950 0.702330
vt 0.691716 0.682756
vt 0.752038 0.611208
vt 0.717288 0.529300
vt 0.637335 0.516719
vt 0.689019 0.451631
vt 0.603988 0.444918
vt 0.648390 0.372091
vt 0.565361 0.375815
vt 0.602033 0.303663
vt 0.519429 0.306547
vt 0.486769 0.385342
vt 0.431227 0.320608
vt 0.409111 0.400724
vt 0.351822 0.343551
vt 0.329040 0.423003
vt 0.393887 0.478414
vt 0.315158 0.511234
vt 0.384520 0.557025
vt 0.312442 0.593843
vt 0.666534 0.594534
vt 0.603443 0.657753
vt 0.583551 0.574810
vt 0.525570 0.628712
vt 0.380965 0.640061
vt 0.453702 0.595511
vt 0.460587 0.680528
vn 0.0310 -0.9992 0.0261
vn 0.2198 -0.9727 0.0743
vn -0.2444 -0.9690 0.0366
vn 0.7485 -0.4227 0.5110
vn 0.6702 -0.6756 0.3073
vn 0.7274 -0.6248 0.2837
vn -0.4455 -0.8821 0.1528
vn 0.0304 -0.9655 -0.2586
vn 0.0568 -0.9735 -0.2217
vn 0.8103 -0.1462 0.5674
vn -0.5237 -0.4831 0.7017
vn -0.1802 -0.6507 0.7376
vn -0.3750 -0.3236 0.8687
vn -0.8538 -0.5161 -0.0689
vn -0.8043 -0.4757 0.3560
vn -0.9228 -0.3852 -0.0009
vn -0.3781 -0.4886 -0.7864
vn -0.6574 -0.5451 -0.5203
vn -0.3800 -0.6716 -0.6360
vn 0.6932 -0.4234 -0.5832
vn 0.4979 -0.5421 -0.6769
vn 0.6428 -0.2322 -0.7300
vn 0.7447 -0.2189 0.6305
vn -0.6562 -0.1708 0.7350
vn -0.9052 -0.4226 0.0460
vn 0.1201 -0.5731 -0.8106
vn 0.9112 -0.2078 -0.3557
vn -0.1090 0.2752 0.9552
vn 0.5638 0.3874 0.7295
vn 0.0828 0.6947 0.7146
vn -0.5215 0.6847 0.5091
vn -0.5727 0.6171 0.5396
vn -0.4916 0.6720 0.5538
vn -0.7501 0.3254 -0.5757
vn -0.7310 0.6582 -0.1801
vn -0.6293 0.7520 -0.1959
vn 0.2907 0.5346 -0.7936
vn -0.3322 0.4267 -0.8411
vn 0.3778 0.6345 -0.6743
vn 0.8508 0.4993 0.1638
vn 0.9153 0.3910 -0.0967
vn 0.8404 0.5275 0.1244
vn 0.0266 0.9912 0.1299
vn -0.0090 0.9984 0.0565
vn -0.0991 0.9946 -0.0320
vn 0.5639 0.8235 0.0621
vn 0.3638 0.8668 -0.3410
vn 0.6134 0.7410 -0.2733
vn 0.4014 0.7825 -0.4760
vn 0.4574 0.7117 -0.5332
vn 0.6239 0.3833 -0.6810
vn 0.6118 0.4878 -0.6227
vn -0.2663 0.9515 -0.1541
vn -0.3264 0.9350 -0.1387
vn -0.0816 0.5080 -0.8575
vn -0.5477 0.8302 -0.1043
vn -0.5839 0.5389 -0.6071
vn -0.3287 0.3788 -0.8652
vn -0.3480 0.3891 -0.8529
vn -0.1706 0.9853 -0.0048
vn -0.4071 0.8903 -0.2040
vn -0.6390 0.7142 -0.2857
vn -0.4774 0.7739 0.4161
vn -0.6745 0.7208 0.1595
vn -0.7647 0.6274 -0.1470
vn -0.8135 0.4866 0.3185
vn 0.2451 0.9471 0.2074
vn -0.1275 0.9434 0.3061
vn -0.6702 0.6194 0.4088
vn 0.2207 0.9218 0.3187
vn -0.0021 0.6876 0.7261
vn -0.2979 0.4806 0.8248
vn 0.0460 0.3202 0.9462
vn 0.1160 0.9197 0.3750
vn 0.3442 0.8806 0.3257
vn 0.7654 0.6262 0.1487
vn 0.8614 0.3539 0.3644
vn 0.8832 0.4648 0.0623
vn 0.9854 0.1187 -0.1217
vn 0.9586 0.0197 -0.2840
vn 0.8546 0.0863 -0.5121
vn 0.7864 0.0709 -0.6137
vn 0.7452 0.1253 -0.6549
vn 0.6658 0.0504 -0.7444
vn 0.6972 0.0809 -0.7123
vn 0.1022 0.3217 -0.9413
vn 0.1479 -0.1271 -0.9808
vn -0.2873 0.6298 -0.7217
vn -0.1655 0.1297 -0.9776
vn -0.3109 0.7219 -0.6182
vn -0.8396 0.1011 -0.5336
vn -0.7906 0.2983 -0.5347
vn -0.7496 0.1951 -0.6325
vn -0.9089 0.0816 -0.4090
vn -0.9011 0.4027 -0.1608
vn -0.9981 -0.0103 0.0608
vn -0.9269 0.3703 0.0617
vn -0.9908 0.0013 0.1353
vn -0.8062 0.4583 0.3741
vn -0.5888 0.3232 0.7408
vn -0.4191 -0.3348 0.8440
vn -0.4677 0.1838 0.8646
vn -0.5992 -0.0554 0.7987
vn -0.0729 0.3660 0.9278
vn 0.0559 0.1777 0.9825
vn 0.1487 0.4114 0.8992
vn 0.2839 0.2421 0.9278
vn 0.6660 -0.0649 0.7431
vn 0.8802 0.1544 0.4487
vn 0.8645 0.1075 0.4910
vn 0.8699 0.1613 0.4661
vn 0.9061 0.1865 0.3798
vn 0.9559 0.2762 0.1000
vn 0.4726 -0.2528 -0.8442
vn 0.4510 -0.2939 -0.8427
vn 0.2063 -0.2858 -0.9358
vn 0.3135 -0.5580 -0.7683
vn 0.0184 -0.4268 -0.9042
vn -0.7986 0.1213 -0.5895
vn -0.7291 -0.5192 -0.4459
vn -0.6670 -0.4662 -0.5812
vn -0.5906 -0.6552 -0.4710
vn -0.6231 -0.6958 -0.3572
vn -0.6042 -0.1681 0.7789
vn -0.6305 -0.5848 0.5105
vn -0.5411 -0.4097 0.7344
vn -0.5815 -0.5173 0.6279
vn -0.6214 -0.4791 0.6200
vn 0.2587 -0.0313 0.9655
vn 0.3960 -0.2701 0.8776
vn 0.4313 -0.2815 0.8571
vn 0.2766 -0.5046 0.8178
vn 0.6063 -0.3983 0.6883
vn 0.9911 0.0789 -0.1075
vn 0.9728 -0.2121 0.0936
vn 0.9274 -0.1852 -0.3251
vn 0.8054 -0.5892 -0.0642
vn 0.8587 -0.4144 -0.3013
vn 0.6297 -0.4940 -0.5996
vn 0.3358 -0.8141 -0.4739
vn 0.1933 -0.6642 -0.7221
vn 0.1342 -0.7418 -0.6570
vn 0.2509 -0.8195 -0.5152
vn -0.0115 -0.8062 -0.5916
vn -0.2960 -0.5849 -0.7552
vn -0.7680 -0.4879 -0.4150
vn -0.5970 -0.7764 -0.2020
vn -0.6925 -0.5686 -0.4440
vn -0.4619 -0.8840 -0.0712
vn -0.7717 -0.5783 -0.2646
vn -0.5401 -0.7014 0.4651
vn -0.4814 -0.8340 0.2696
vn -0.5980 -0.6147 0.5144
vn -0.4494 -0.7099 0.5424
vn -0.4495 -0.5551 0.6999
vn 0.8173 -0.5633 -0.1214
vn 0.7125 -0.6748 0.1922
vn 0.4591 -0.8698 0.1808
vn 0.5278 -0.8041 0.2736
vn -0.0244 -0.6498 0.7597
vn 0.2679 -0.8796 0.3932
vn 0.3948 -0.7203 0.5704
s 1
f 1/1/1 16/2/2 15/3/3
f 2/4/4 18/5/5 24/6/6
f 1/1/1 15/3/3 30/7/7
f 1/1/1 30/7/7 36/8/8
f 1/1/1 36/8/8 25/9/9
f 2/4/4 24/6/6 45/10/10
f 3/11/11 21/12/12 51/13/13
f 4/14/14 33/15/15 57/16/16
f 5/17/17 39/18/18 63/19/19
f 6/20/20 42/21/21 69/22/22
f 2/4/4 45/10/10 52/23/23
f 3/11/11 51/13/13 58/24/24
f 4/14/14 57/16/16 64/25/25
f 5/17/17 63/19/19 70/26/26
f 6/20/20 69/22/22 46/27/27
f 7/28/28 75/29/29 90/30/30
f 8/31/31 78/32/32 96/33/33
f 9/34/34 81/35/35 99/36/36
f 10/37/37 84/38/38 102/39/39
f 11/40/40 87/41/41 91/42/42
f 93/43/43 100/44/44 12/45/45
f 92/46/46 103/47/47 93/43/43
f 91/42/42 104/48/48 92/46/46
f 93/43/43 103/47/47 100/44/44
f 103/47/47 101/49/49 100/44/44
f 92/46/46 104/48/48 103/47/47
f 104/48/48 105/50/50 103/47/47
f 103/47/47 105/50/50 101/49/49
f 105/50/50 102/39/39 101/49/49
f 91/42/42 87/41/41 104/48/48
f 87/41/41 86/51/51 104/48/48
f 104/48/48 86/51/51 105/50/50
f 86/51/51 85/52/52 105/50/50
f 105/50/50 85/52/52 102/39/39
f 85/52/52 10/37/37 102/39/39
f 100/44/44 97/53/53 12/45/45
f 101/49/49 106/54/54 100/44/44
f 102/39/39 107/55/55 101/49/49
f 100/44/44 106/54/54 97/53/53
f 106/54/54 98/56/56 97/53/53
f 101/49/49 107/55/55 106/54/54
f 107/55/55 108/57/57 106/54/54
f 106/54/54 108/57/57 98/56/56
f 108/57/57 99/36/36 98/56/56
f 102/39/39 84/38/38 107/55/55
f 84/38/38 83/58/58 107/55/55
f 107/55/55 83/58/58 108/57/57
f 83/58/58 82/59/59 108/57/57
f 108/57/57 82/59/59 99/36/36
f 82/59/59 9/34/34 99/36/36
f 97/53/53 94/60/60 12/45/45
f 98/56/56 109/61/61 97/53/53
f 99/36/36 110/62/62 98/56/56
f 97/53/53 109/61/61 94/60/60
f 109/61/61 95/63/63 94/60/60
f 98/56/56 110/62/62 109/61/61
f 110/62/62 111/64/64 109/61/61
f 109/61/61 111/64/64 95/63/63
f 111/64/64 96/33/33 95/63/63
f 99/36/36 81/35/35 110/62/62
f 81/35/35 80/65/65 110/62/62
f 110/62/62 80/65/65 111/64/64
f 80/65/65 79/66/66 111/64/64
f 111/64/64 79/66/66 96/33/33
f 79/66/66 8/31/31 96/33/33
f 94/60/60 88/67/67 12/45/45
f 95/63/63 112/68/68 94/60/60
f 96/33/33 113/69/69 95/63/63
f 94/60/60 112/68/68 88/67/67
f 112/68/68 89/70/70 88/67/67
f 95/63/63 113/69/69 112/68/68
f 113/69/69 114/71/71 112/68/68
f 112/68/68 114/71/71 89/70/70
f 114/71/71 90/30/30 89/70/70
f 96/33/33 78/32/32 113/69/69
f 78/32/32 77/72/72 113/69/69
f 113/69/69 77/72/72 114/71/71
f 77/72/72 76/73/73 114/71/71
f 114/71/71 76/73/73 90/30/30
f 76/73/73 7/28/28 90/30/30
f 88/67/67 93/43/43 12/45/45
f 89/70/70 115/74/74 88/67/67
f 90/30/30 116/75/75 89/70/70
f 88/67/67 115/74/74 93/43/43
f 115/74/74 92/46/46 93/43/43
f 89/70/70 116/75/75 115/74/74
f 116/75/75 117/76/76 115/74/74
f 115/74/74 117/76/76 92/46/46
f 117/76/76 91/42/42 92/46/46
f 90/30/30 75/29/29 116/75/75
f 75/29/29 74/77/77 116/75/75
f 116/75/75 74/77/77 117/76/76
f 74/77/77 73/78/78 117/76/76
f 117/76/76 73/78/78 91/42/42
f 73/78/78 11/40/40 91/42/42
f 48/79/79 87/41/41 11/40/40
f 47/80/80 118/81/81 48/79/79
f 46/27/27 119/82/82 47/83/80
f 48/79/79 118/81/81 87/41/41
f 118/81/81 86/51/51 87/41/41
f 47/80/80 119/84/82 118/81/81
f 119/84/82 120/85/83 118/81/81
f 118/81/81 120/85/83 86/51/51
f 120/85/83 85/52/52 86/51/51
f 46/27/27 69/22/22 119/82/82
f 69/22/22 68/86/84 119/82/82
f 119/84/82 68/87/84 120/85/83
f 68/87/84 67/88/85 120/85/83
f 120/85/83 67/88/85 85/52/52
f 67/88/85 10/37/37 85/52/52
f 72/89/86 84/38/38 10/37/37
f 71/90/87 121/91/88 72/89/86
f 70/26/26 122/92/89 71/93/87
f 72/89/86 121/91/88 84/38/38
f 121/91/88 83/58/58 84/38/38
f 71/90/87 122/94/89 121/91/88
f 122/94/89 123/95/90 121/91/88
f 121/91/88 123/95/90 83/58/58
f 123/95/90 82/59/59 83/58/58
f 70/26/26 63/19/19 122/92/89
f 63/19/19 62/96/91 122/92/89
f 122/94/89 62/97/91 123/95/90
f 62/97/91 61/98/92 123/95/90
f 123/95/90 61/98/92 82/59/59
f 61/98/92 9/34/34 82/59/59
f 66/99/93 81/35/35 9/34/34
f 65/100/94 124/101/95 66/99/93
f 64/25/25 125/102/96 65/103/94
f 66/99/93 124/101/95 81/35/35
f 124/101/95 80/65/65 81/35/35
f 65/100/94 125/104/96 124/101/95
f 125/104/96 126/105/97 124/101/95
f 124/101/95 126/105/97 80/65/65
f 126/105/97 79/66/66 80/65/65
f 64/25/25 57/16/16 125/102/96
f 57/16/16 56/106/98 125/102/96
f 125/104/96 56/107/98 126/105/97
f 56/107/98 55/108/99 126/105/97
f 126/105/97 55/108/99 79/66/66
f 55/108/99 8/31/31 79/66/66
f 60/109/100 78/32/32 8/31/31
f 59/110/101 127/111/102 60/109/100
f 58/24/24 128/112/103 59/113/101
f 60/109/100 127/111/102 78/32/32
f 127/111/102 77/72/72 78/32/32
f 59/110/101 128/114/103 127/111/102
f 128/114/103 129/115/104 127/111/102
f 127/111/102 129/115/104 77/72/72
f 129/115/104 76/73/73 77/72/72
f 58/24/24 51/13/13 128/112/103
f 51/13/13 50/116/105 128/112/103
f 128/114/103 50/117/105 129/115/104
f 50/117/105 49/118/106 129/115/104
f 129/115/104 49/118/106 76/73/73
f 49/118/106 7/28/28 76/73/73
f 54/119/107 75/29/29 7/28/28
f 53/120/108 130/121/109 54/119/107
f 52/23/23 131/122/110 53/123/108
f 54/119/107 130/121/109 75/29/29
f 130/121/109 74/77/77 75/29/29
f 53/120/108 131/124/110 130/121/109
f 131/124/110 132/125/111 130/121/109
f 130/121/109 132/125/111 74/77/77
f 132/125/111 73/78/78 74/77/77
f 52/23/23 45/10/10 131/122/110
f 45/10/10 44/126/112 131/122/110
f 131/124/110 44/127/112 132/125/111
f 44/127/112 43/128/113 132/125/111
f 132/125/111 43/128/113 73/78/78
f 43/128/113 11/40/40 73/78/78
f 67/88/85 72/89/86 10/37/37
f 68/87/84 133/129/114 67/88/85
f 69/22/22 134/130/115 68/86/84
f 67/88/85 133/129/114 72/89/86
f 133/129/114 71/90/87 72/89/86
f 68/86/84 134/130/115 133/131/114
f 134/130/115 135/132/116 133/131/114
f 133/131/114 135/132/116 71/93/87
f 135/132/116 70/26/26 71/93/87
f 69/22/22 42/21/21 134/130/115
f 42/21/21 41/133/117 134/130/115
f 134/130/115 41/133/117 135/132/116
f 41/133/117 40/134/118 135/132/116
f 135/132/116 40/134/118 70/26/26
f 40/134/118 5/17/17 70/26/26
f 61/98/92 66/99/93 9/34/34
f 62/97/91 136/135/119 61/98/92
f 63/19/19 137/136/120 62/96/91
f 61/98/92 136/135/119 66/99/93
f 136/135/119 65/100/94 66/99/93
f 62/96/91 137/136/120 136/137/119
f 137/136/120 138/138/121 136/137/119
f 136/137/119 138/138/121 65/103/94
f 138/138/121 64/25/25 65/103/94
f 63/19/19 39/18/18 137/136/120
f 39/18/18 38/139/122 137/136/120
f 137/136/120 38/139/122 138/138/121
f 38/139/122 37/140/123 138/138/121
f 138/138/121 37/140/123 64/25/25
f 37/140/123 4/14/14 64/25/25
f 55/108/99 60/109/100 8/31/31
f 56/107/98 139/141/124 55/108/99
f 57/16/16 140/142/125 56/106/98
f 55/108/99 139/141/124 60/109/100
f 139/141/124 59/110/101 60/109/100
f 56/106/98 140/142/125 139/143/124
f 140/142/125 141/144/126 139/143/124
f 139/143/124 141/144/126 59/113/101
f 141/144/126 58/24/24 59/113/101
f 57/16/16 33/15/15 140/142/125
f 33/15/15 32/145/127 140/142/125
f 140/142/125 32/145/127 141/144/126
f 32/145/127 31/146/128 141/144/126
f 141/144/126 31/146/128 58/24/24
f 31/146/128 3/11/11 58/24/24
f 49/118/106 54/119/107 7/28/28
f 50/117/105 142/147/129 49/118/106
f 51/13/13 143/148/130 50/116/105
f 49/118/106 142/147/129 54/119/107
f 142/147/129 53/120/108 54/119/107
f 50/116/105 143/148/130 142/149/129
f 143/148/130 144/150/131 142/149/129
f 142/149/129 144/150/131 53/123/108
f 144/150/131 52/23/23 53/123/108
f 51/13/13 21/12/12 143/148/130
f 21/12/12 20/151/132 143/148/130
f 143/148/130 20/151/132 144/150/131
f 20/151/132 19/152/133 144/150/131
f 144/150/131 19/152/133 52/23/23
f 19/152/133 2/4/4 52/23/23
f 43/128/113 48/79/79 11/40/40
f 44/127/112 145/153/134 43/128/113
f 45/10/10 146/154/135 44/126/112
f 43/128/113 145/153/134 48/79/79
f 145/153/134 47/80/80 48/79/79
f 44/126/112 146/154/135 145/155/134
f 146/154/135 147/156/136 145/155/134
f 145/155/134 147/156/136 47/83/80
f 147/156/136 46/27/27 47/83/80
f 45/10/10 24/6/6 146/154/135
f 24/6/6 23/157/137 146/154/135
f 146/154/135 23/157/137 147/156/136
f 23/157/137 22/158/138 147/156/136
f 147/156/136 22/158/138 46/27/27
f 22/158/138 6/20/20 46/27/27
f 27/159/139 42/21/21 6/20/20
f 26/160/140 148/161/141 27/159/139
f 25/9/9 149/162/142 26/160/140
f 27/159/139 148/161/141 42/21/21
f 148/161/141 41/133/117 42/21/21
f 26/160/140 149/162/142 148/161/141
f 149/162/142 150/163/143 148/161/141
f 148/161/141 150/163/143 41/133/117
f 150/163/143 40/134/118 41/133/117
f 25/9/9 36/8/8 149/162/142
f 36/8/8 35/164/144 149/162/142
f 149/162/142 35/164/144 150/163/143
f 35/164/144 34/165/145 150/163/143
f 150/163/143 34/165/145 40/134/118
f 34/165/145 5/17/17 40/134/118
f 34/165/145 39/18/18 5/17/17
f 35/164/144 151/166/146 34/165/145
f 36/8/8 152/167/147 35/164/144
f 34/165/145 151/166/146 39/18/18
f 151/166/146 38/139/122 39/18/18
f 35/164/144 152/167/147 151/166/146
f 152/167/147 153/168/148 151/166/146
f 151/166/146 153/168/148 38/139/122
f 153/168/148 37/140/123 38/139/122
f 36/8/8 30/7/7 152/167/147
f 30/7/7 29/169/149 152/167/147
f 152/167/147 29/169/149 153/168/148
f 29/169/149 28/170/150 153/168/148
f 153/168/148 28/170/150 37/140/123
f 28/170/150 4/14/14 37/140/123
f 28/170/150 33/15/15 4/14/14
f 29/169/149 154/171/151 28/170/150
f 30/7/7 155/172/152 29/169/149
f 28/170/150 154/171/151 33/15/15
f 154/171/151 32/145/127 33/15/15
f 29/169/149 155/172/152 154/171/151
f 155/172/152 156/173/153 154/171/151
f 154/171/151 156/173/153 32/145/127
f 156/173/153 31/146/128 32/145/127
f 30/7/7 15/3/3 155/172/152
f 15/3/3 14/174/154 155/172/152
f 155/172/152 14/174/154 156/173/153
f 14/174/154 13/175/155 156/173/153
f 156/173/153 13/175/155 31/146/128
f 13/175/155 3/11/11 31/146/128
f 22/158/138 27/159/139 6/20/20
f 23/157/137 157/176/156 22/158/138
f 24/6/6 158/177/157 23/157/137
f 22/158/138 157/176/156 27/159/139
f 157/176/156 26/160/140 27/159/139
f 23/157/137 158/177/157 157/176/156
f 158/177/157 159/178/158 157/176/156
f 157/176/156 159/178/158 26/160/140
f 159/178/158 25/9/9 26/160/140
f 24/6/6 18/5/5 158/177/157
f 18/5/5 17/179/159 158/177/157
f 158/177/157 17/179/159 159/178/158
f 17/179/159 16/2/2 159/178/158
f 159/178/158 16/2/2 25/9/9
f 16/2/2 1/1/1 25/9/9
f 13/175/155 21/12/12 3/11/11
f 14/174/154 160/180/160 13/175/155
f 15/3/3 161/181/161 14/174/154
f 13/175/155 160/180/160 21/12/12
f 160/180/160 20/151/132 21/12/12
f 14/174/154 161/181/161 160/180/160
f 161/181/161 162/182/162 160/180/160
f 160/180/160 162/182/162 20/151/132
f 162/182/162 19/152/133 20/151/132
f 15/3/3 16/2/2 161/181/161
f 16/2/2 17/179/159 161/181/161
f 161/181/161 17/179/159 162/182/162
f 17/179/159 18/5/5 162/182/162
f 162/182/162 18/5/5 19/152/133
f 18/5/5 2/4/4 19/152/133
