# Blender v3.2.0 OBJ File: 'asteroid.blend'
# www.blender.org
o Asteroid_4_Icosphere.001
v -1.045726 -0.090675 0.037195
v -0.399716 -0.846470 -0.407637
v -0.333737 -0.611433 0.580914
v -0.374834 0.298271 0.678612
v -0.557506 0.892653 -0.120415
v -0.542852 0.120205 -0.959929
v 0.465775 -0.745777 0.100602
v 0.430010 -0.095218 0.760390
v 0.407029 0.861956 0.415095
v 0.374489 0.686094 -0.651849
v 0.411579 -0.327511 -0.745137
v 1.014748 0.087989 -0.036093
v -0.489504 -0.493659 0.458206
v -0.735970 -0.410431 0.364789
v -0.969490 -0.269868 0.215997
v -0.972083 -0.313298 -0.084428
v -0.916282 -0.604664 -0.240334
v -0.714391 -0.844723 -0.381358
v -0.454730 -0.931939 -0.163790
v -0.478386 -0.946873 0.151944
v -0.445599 -0.849759 0.452944
v -0.562979 -0.153324 -0.906568
v -0.603964 -0.494155 -0.867075
v -0.496040 -0.708542 -0.615278
v -0.991031 -0.042918 -0.216556
v -0.920265 0.013650 -0.514303
v -0.663251 0.064370 -0.689903
v -0.554094 0.234759 0.588509
v -0.812263 0.153118 0.478512
v -0.993846 0.029066 0.267135
v -0.394403 -0.422899 0.694472
v -0.417548 -0.160567 0.742852
v -0.414373 0.098457 0.744052
v -0.821414 0.777197 -0.097231
v -0.879797 0.437222 -0.045240
v -0.987949 0.164149 -0.002092
v -0.461033 0.470300 0.574420
v -0.513471 0.631239 0.369418
v -0.571602 0.812880 0.134035
v -0.634343 0.807974 -0.370701
v -0.584457 0.547275 -0.563370
v -0.508105 0.296859 -0.691077
v 0.285224 -0.566249 -0.845977
v 0.038095 -0.757333 -0.775233
v -0.202457 -0.796686 -0.563912
v -0.300746 -0.010330 -1.011160
v -0.022856 -0.150424 -1.009302
v 0.244702 -0.274327 -0.939076
v 0.268763 -0.706046 0.215182
v 0.094436 -0.904608 0.449766
v -0.183252 -0.915280 0.649263
v -0.166552 -0.851436 -0.277654
v 0.080482 -0.998117 -0.170507
v 0.310446 -0.875921 -0.014836
v 0.277650 0.009147 0.931073
v 0.023904 0.157324 1.055600
v -0.231772 0.259514 0.887476
v -0.152279 -0.525083 0.685579
v 0.064653 -0.416693 0.801889
v 0.301611 -0.273618 0.886767
v 0.162806 0.831184 0.271171
v -0.085128 1.055731 0.180349
v -0.400761 1.138356 0.020797
v -0.266017 0.526652 0.787585
v -0.036301 0.721669 0.738726
v 0.178629 0.699476 0.494197
v 0.193133 0.672650 -0.880950
v -0.079806 0.514352 -0.989825
v -0.330154 0.300802 -0.972890
v -0.392086 1.040222 -0.319734
v -0.104139 0.997548 -0.495975
v 0.167153 0.830653 -0.589820
v 0.468311 -0.477789 -0.583330
v 0.550954 -0.677320 -0.396385
v 0.603870 -0.858559 -0.142130
v 0.463013 -0.591578 0.268517
v 0.537828 -0.503612 0.518423
v 0.460364 -0.268306 0.626887
v 0.500561 0.135269 0.806394
v 0.565153 0.462401 0.811357
v 0.491147 0.701657 0.609175
v 0.440756 0.903331 0.159069
v 0.426005 0.843194 -0.135307
v 0.390249 0.744070 -0.397983
v 0.475565 0.507651 -0.837443
v 0.552812 0.212583 -0.983499
v 0.530613 -0.123268 -0.952699
v 0.895307 -0.147820 0.001757
v 0.780278 -0.387765 0.040122
v 0.723792 -0.686430 0.085914
v 0.516292 -0.219193 -0.549265
v 0.826817 -0.155861 -0.487086
v 0.918449 -0.026514 -0.246171
v 1.058729 0.045733 0.232033
v 0.718331 -0.010654 0.401449
v 0.566574 -0.055335 0.591378
v 1.056676 0.341371 0.092196
v 0.895142 0.590714 0.234790
v 0.690125 0.816514 0.368656
v 1.057162 0.294957 -0.236198
v 0.808471 0.450863 -0.400725
v 0.540281 0.543633 -0.504531
v 0.833400 0.144546 -0.452769
v 0.686162 0.012655 -0.699539
v 0.596886 0.295204 -0.583990
v 0.985742 0.602201 -0.112068
v 0.709997 0.756551 -0.305917
v 0.785324 0.883417 0.043495
v 1.053980 0.328669 0.439746
v 0.754291 0.543311 0.541404
v 0.800571 0.236896 0.707938
v 0.870653 -0.224942 0.262538
v 0.640347 -0.248895 0.464942
v 0.786151 -0.528924 0.327547
v 0.837455 -0.289539 -0.217977
v 0.794304 -0.622017 -0.198766
v 0.673696 -0.409899 -0.433334
v 0.265174 0.022618 -1.067879
v -0.053110 0.179907 -1.078243
v 0.245246 0.385457 -1.044001
v 0.168469 0.844183 -0.279024
v -0.106948 1.182647 -0.173832
v 0.191272 0.971972 0.013654
v 0.273258 0.635392 0.826830
v -0.006878 0.406499 0.819032
v 0.273957 0.289157 0.878027
v 0.323736 -0.492550 0.707139
v 0.069119 -0.581433 0.571409
v 0.321705 -0.675651 0.473422
v 0.331656 -0.856393 -0.294433
v 0.053622 -0.800526 -0.420311
v 0.308939 -0.711285 -0.571673
v -0.096722 0.787042 -0.773630
v -0.367715 0.561196 -0.803755
v -0.346991 0.729171 -0.511677
v -0.050638 0.762286 0.400199
v -0.334013 0.862549 0.296605
v -0.353209 0.815161 0.653640
v 0.054996 -0.187606 1.124192
v -0.276325 -0.023909 1.113633
v -0.222338 -0.349634 0.944744
v 0.080022 -0.857885 0.126041
v -0.190907 -0.959790 0.316102
v -0.180122 -0.913938 -0.013298
v 0.006451 -0.495643 -0.998235
v -0.279083 -0.648970 -0.844790
v -0.305877 -0.324319 -0.981985
v -0.642748 0.249836 -0.466649
v -0.748747 0.192489 -0.224842
v -0.677983 0.457478 -0.282193
v -0.781269 0.611948 0.195426
v -0.995861 0.345931 0.260054
v -0.666271 0.405399 0.428674
v -0.629152 -0.011000 0.642004
v -0.762492 -0.132102 0.413390
v -0.477166 -0.237942 0.467969
v -0.779820 -0.230626 -0.689809
v -0.789010 -0.567824 -0.566218
v -1.022316 -0.318663 -0.426267
v -0.664930 -0.708883 0.287101
v -0.918886 -0.560656 0.104361
v -0.752490 -0.846805 -0.041989
vt 0.504379 0.495799
vt 0.513891 0.555457
vt 0.450580 0.523280
vt 0.550525 0.785237
vt 0.538313 0.708639
vt 0.620292 0.743223
vt 0.461618 0.453124
vt 0.531751 0.441944
vt 0.564057 0.505189
vt 0.616976 0.845982
vt 0.243367 0.629127
vt 0.304884 0.682496
vt 0.206130 0.711097
vt 0.296919 0.288760
vt 0.265172 0.363759
vt 0.207455 0.278675
vt 0.637177 0.234516
vt 0.556037 0.227498
vt 0.619121 0.146314
vt 0.793911 0.541356
vt 0.775512 0.462020
vt 0.872217 0.496928
vt 0.506256 0.863633
vt 0.155128 0.611251
vt 0.286653 0.199317
vt 0.719070 0.197112
vt 0.854790 0.607684
vt 0.371406 0.757225
vt 0.452543 0.764282
vt 0.406583 0.688095
vt 0.214818 0.450311
vt 0.233179 0.529655
vt 0.291434 0.462403
vt 0.458319 0.206545
vt 0.388532 0.248526
vt 0.470495 0.283148
vt 0.765403 0.362800
vt 0.703910 0.309401
vt 0.696311 0.398052
vt 0.711690 0.703142
vt 0.743473 0.628158
vt 0.656813 0.648325
vt 0.547069 0.538700
vt 0.558140 0.468549
vt 0.504328 0.496005
vt 0.599551 0.591125
vt 0.614812 0.513442
vt 0.679632 0.568883
vt 0.624216 0.434836
vt 0.693556 0.480659
vt 0.765757 0.537266
vt 0.772548 0.443928
vt 0.494844 0.436342
vt 0.555052 0.396317
vt 0.627810 0.351801
vt 0.483200 0.363082
vt 0.548207 0.311296
vt 0.624354 0.260121
vt 0.537683 0.224819
vt 0.444655 0.486586
vt 0.425194 0.416957
vt 0.405340 0.334004
vt 0.371382 0.475021
vt 0.342219 0.397193
vt 0.317079 0.308959
vt 0.256723 0.380478
vt 0.476930 0.549847
vt 0.404695 0.546838
vt 0.319667 0.540085
vt 0.443289 0.615960
vt 0.360258 0.619644
vt 0.268574 0.616287
vt 0.317941 0.695790
vt 0.521885 0.606470
vt 0.489188 0.685249
vt 0.577397 0.671230
vt 0.545873 0.757389
vt 0.636741 0.735006
vt 0.801149 0.713269
vt 0.929636 0.712496
vt 0.843562 0.610777
vt 0.975675 0.569956
vt 0.929849 0.711971
vt 0.975973 0.570445
vt 0.862420 0.491292
vt 0.975675 0.420729
vt 0.975638 0.421027
vt 0.853633 0.380718
vt 0.802679 0.280848
vt 0.841648 0.158411
vt 0.718310 0.208839
vt 0.720544 0.070485
vt 0.841447 0.157952
vt 0.720869 0.070447
vt 0.610501 0.153982
vt 0.578622 0.024372
vt 0.578662 0.024593
vt 0.502625 0.128170
vt 0.391896 0.145769
vt 0.287493 0.070872
vt 0.297341 0.203756
vt 0.166680 0.158785
vt 0.287226 0.070829
vt 0.166513 0.158557
vt 0.211854 0.289336
vt 0.078969 0.279509
vt 0.078960 0.279632
vt 0.153970 0.383954
vt 0.136491 0.494701
vt 0.032997 0.570852
vt 0.162420 0.602549
vt 0.079506 0.712827
vt 0.033104 0.570999
vt 0.079005 0.713009
vt 0.217395 0.710299
vt 0.167218 0.833552
vt 0.167100 0.833692
vt 0.289495 0.794590
vt 0.389421 0.845436
vt 0.429862 0.967396
vt 0.500003 0.854103
vt 0.579493 0.966942
vt 0.430267 0.967246
vt 0.579280 0.967569
vt 0.619468 0.835115
vt 0.721415 0.920829
vt 0.721280 0.921077
vt 0.721914 0.792590
vt 0.929304 0.279178
vt 0.846236 0.389093
vt 0.929599 0.278594
vt 0.791211 0.281369
vt 0.740076 0.375405
vt 0.690671 0.295925
vt 0.429437 0.024826
vt 0.508535 0.137699
vt 0.429204 0.024270
vt 0.389079 0.156743
vt 0.462710 0.234434
vt 0.371853 0.256860
vt 0.033067 0.421626
vt 0.165090 0.381188
vt 0.032699 0.421582
vt 0.146289 0.500682
vt 0.242930 0.454661
vt 0.236183 0.548002
vt 0.287962 0.921216
vt 0.290533 0.783065
vt 0.288039 0.921459
vt 0.398368 0.837872
vt 0.384465 0.731740
vt 0.471152 0.767000
vt 0.841867 0.833178
vt 0.711504 0.787950
vt 0.842354 0.833087
vt 0.796950 0.702330
vt 0.691716 0.682756
vt 0.752038 0.611208
vt 0.717288 0.529300
vt 0.637335 0.516719
vt 0.689019 0.451631
vt 0.603988 0.444918
vt 0.648390 0.372091
vt 0.565361 0.375815
vt 0.602033 0.303663
vt 0.519429 0.306547
vt 0.486769 0.385342
vt 0.431227 0.320608
vt 0.409111 0.400724
vt 0.351822 0.343551
vt 0.329040 0.423003
vt 0.393887 0.478414
vt 0.315158 0.511234
vt 0.384520 0.557025
vt 0.312442 0.593843
vt 0.666534 0.594534
vt 0.603443 0.657753
vt 0.583551 0.574810
vt 0.525570 0.628712
vt 0.380965 0.640061
vt 0.453702 0.595511
vt 0.460587 0.680528
vn -0.9988 -0.0483 0.0056
vn -0.9806 -0.1932 0.0327
vn -0.8451 -0.2539 0.4704
vn -0.0045 -0.9253 -0.3793
vn -0.4750 -0.7961 -0.3749
vn -0.2763 -0.8003 -0.5322
vn -0.8878 -0.0622 0.4559
vn -0.9124 0.2723 -0.3055
vn -0.9345 0.3061 -0.1816
vn -0.0581 -0.9498 -0.3073
vn -0.5703 -0.2666 0.7770
vn -0.5892 -0.5797 0.5629
vn -0.0668 -0.6402 0.7653
vn -0.6760 0.2246 0.7018
vn -0.7029 0.2522 0.6651
vn -0.4928 0.4819 0.7245
vn -0.6542 0.7563 -0.0015
vn -0.5706 0.6645 0.4826
vn -0.4734 0.8452 0.2481
vn -0.6403 0.2555 -0.7244
vn -0.8119 0.3436 -0.4719
vn -0.4718 0.3284 -0.8182
vn -0.0324 -0.9515 -0.3060
vn -0.0443 -0.5916 0.8050
vn -0.4193 0.2306 0.8781
vn -0.4740 0.7332 -0.4876
vn -0.2044 -0.0633 -0.9769
vn 0.2267 -0.7690 0.5978
vn 0.4526 -0.8892 -0.0663
vn 0.6696 -0.6572 0.3461
vn 0.7528 -0.2555 0.6067
vn 0.7394 -0.2178 0.6371
vn 0.7067 -0.3915 0.5893
vn -0.0713 0.8985 0.4332
vn 0.2453 0.7710 0.5876
vn 0.4909 0.7551 0.4346
vn 0.5937 0.7469 -0.2994
vn 0.3646 0.8583 -0.3611
vn 0.6368 0.5195 -0.5697
vn 0.7958 -0.3977 -0.4566
vn 0.6220 -0.4484 -0.6419
vn 0.6639 -0.4335 -0.6093
vn 0.9165 -0.2946 -0.2704
vn 0.9122 0.0316 -0.4085
vn 0.9353 -0.3212 -0.1483
vn 0.7592 -0.3350 -0.5580
vn 0.7609 0.0942 -0.6420
vn 0.8603 -0.1276 -0.4935
vn 0.5780 0.3252 -0.7484
vn 0.7877 0.3521 -0.5055
vn 0.6956 0.1955 -0.6913
vn 0.7024 0.5329 -0.4718
vn 0.9824 0.1854 0.0240
vn 0.8519 0.4803 -0.2088
vn 0.3896 0.7099 -0.5868
vn 0.8030 0.5249 0.2823
vn 0.5026 0.8644 -0.0138
vn 0.1562 0.9343 -0.3205
vn 0.0752 0.9929 0.0921
vn 0.8897 -0.3733 0.2627
vn 0.8785 0.1076 0.4656
vn 0.6197 0.5425 0.5671
vn 0.6579 -0.3815 0.6493
vn 0.6570 -0.1917 0.7291
vn 0.4318 0.3189 0.8437
vn 0.4745 -0.2312 0.8493
vn 0.8898 -0.4489 -0.0819
vn 0.8563 -0.3150 0.4093
vn 0.6785 -0.0903 0.7290
vn 0.9611 -0.2757 0.0145
vn 0.7268 -0.5243 0.4437
vn 0.5797 -0.5354 0.6142
vn 0.3231 -0.8665 0.3805
vn 0.9368 -0.3135 -0.1554
vn 0.8864 -0.3905 -0.2488
vn 0.6475 -0.3154 -0.6937
vn 0.5398 -0.5680 -0.6212
vn 0.7386 -0.2945 -0.6065
vn 0.3545 -0.3411 -0.8706
vn 0.0030 -0.1623 -0.9867
vn 0.1388 -0.1628 -0.9769
vn -0.1269 0.0387 -0.9912
vn 0.1977 0.3287 -0.9235
vn -0.1921 0.4474 -0.8735
vn 0.2531 0.7007 -0.6671
vn 0.3977 0.8675 -0.2989
vn 0.0451 0.8255 -0.5625
vn 0.4597 0.8464 -0.2687
vn 0.2262 0.9604 -0.1626
vn 0.4178 0.9072 0.0502
vn 0.1689 0.7957 0.5817
vn 0.0423 0.8512 0.5232
vn -0.0302 0.9325 0.3599
vn 0.0715 0.7612 0.6446
vn 0.0784 0.6341 0.7693
vn -0.0647 0.4042 0.9124
vn 0.2254 0.2247 0.9480
vn 0.1447 0.4565 0.8779
vn 0.5885 0.0307 0.8079
vn 0.5992 -0.4038 0.6913
vn 0.1049 -0.7827 0.6135
vn 0.3685 -0.6192 0.6934
vn 0.2218 -0.5629 0.7962
vn 0.4700 -0.7815 0.4103
vn 0.5058 -0.7928 0.3400
vn 0.4886 -0.8246 0.2853
vn 0.2623 -0.8993 0.3498
vn 0.0327 -0.9914 -0.1264
vn 0.2484 -0.8882 -0.3865
vn 0.0624 -0.9270 -0.3697
vn 0.4525 -0.7742 -0.4426
vn 0.1307 -0.8638 -0.4865
vn 0.5931 -0.4661 -0.6565
vn -0.2120 0.7554 -0.6200
vn -0.6101 0.5020 -0.6130
vn -0.4578 0.6185 -0.6386
vn -0.7776 0.3019 -0.5516
vn -0.6648 0.5035 -0.5518
vn 0.1753 0.8818 0.4379
vn -0.3463 0.7593 0.5509
vn -0.4220 0.7441 0.5179
vn -0.6676 0.5437 0.5086
vn -0.7160 0.2426 0.6546
vn 0.2503 -0.3198 0.9138
vn -0.5471 0.0766 0.8335
vn -0.3818 -0.6495 0.6576
vn -0.8283 -0.2465 0.5032
vn -0.7331 -0.4077 0.5444
vn 0.3140 -0.9310 0.1862
vn 0.0159 -0.9993 0.0339
vn 0.0239 -0.9982 -0.0555
vn -0.3004 -0.9418 0.1509
vn -0.0466 -0.9854 -0.1636
vn 0.0904 -0.3496 -0.9325
vn -0.2091 -0.6972 -0.6857
vn -0.1976 -0.1833 -0.9630
vn -0.5116 -0.4061 -0.7571
vn -0.5851 -0.0060 -0.8110
vn -0.7443 0.4169 -0.5217
vn -0.7708 0.4631 -0.4375
vn -0.8325 0.4090 -0.3736
vn -0.7835 0.4454 -0.4333
vn -0.8770 0.0632 -0.4764
vn -0.8851 0.2526 -0.3910
vn -0.8271 0.5534 -0.0981
vn -0.6682 0.5803 0.4656
vn -0.8697 0.3673 0.3296
vn -0.5186 0.4617 0.7197
vn -0.6322 0.1093 0.7670
vn -0.5164 0.3307 0.7900
vn -0.6113 -0.1907 0.7681
vn -0.5583 -0.3201 0.7654
vn -0.6790 -0.3261 0.6577
vn -0.5108 -0.2503 0.8225
vn -0.6606 -0.1627 0.7329
vn -0.7263 0.0257 -0.6869
vn -0.6818 -0.4802 -0.5519
vn -0.9402 -0.1453 -0.3079
vn -0.8876 -0.4485 -0.1051
vn -0.6434 -0.4724 0.6024
vn -0.8575 -0.3986 0.3254
vn -0.6166 -0.7772 0.1257
s 1
f 1/1/1 16/2/2 15/3/3
f 2/4/4 18/5/5 24/6/6
f 1/1/1 15/3/3 30/7/7
f 1/1/1 30/7/7 36/8/8
f 1/1/1 36/8/8 25/9/9
f 2/4/4 24/6/6 45/10/10
f 3/11/11 21/12/12 51/13/13
f 4/14/14 33/15/15 57/16/16
f 5/17/17 39/18/18 63/19/19
f 6/20/20 42/21/21 69/22/22
f 2/4/4 45/10/10 52/23/23
f 3/11/11 51/13/13 58/24/24
f 4/14/14 57/16/16 64/25/25
f 5/17/17 63/19/19 70/26/26
f 6/20/20 69/22/22 46/27/27
f 7/28/28 75/29/29 90/30/30
f 8/31/31 78/32/32 96/33/33
f 9/34/34 81/35/35 99/36/36
f 10/37/37 84/38/38 102/39/39
f 11/40/40 87/41/41 91/42/42
f 93/43/43 100/44/44 12/45/45
f 92/46/46 103/47/47 93/43/43
f 91/42/42 104/48/48 92/46/46
f 93/43/43 103/47/47 100/44/44
f 103/47/47 101/49/49 100/44/44
f 92/46/46 104/48/48 103/47/47
f 104/48/48 105/50/50 103/47/47
f 103/47/47 105/50/50 101/49/49
f 105/50/50 102/39/39 101/49/49
f 91/42/42 87/41/41 104/48/48
f 87/41/41 86/51/51 104/48/48
f 104/48/48 86/51/51 105/50/50
f 86/51/51 85/52/52 105/50/50
f 105/50/50 85/52/52 102/39/39
f 85/52/52 10/37/37 102/39/39
f 100/44/44 97/53/53 12/45/45
f 101/49/49 106/54/54 100/44/44
f 102/39/39 107/55/55 101/49/49
f 100/44/44 106/54/54 97/53/53
f 106/54/54 98/56/56 97/53/53
f 101/49/49 107/55/55 106/54/54
f 107/55/55 108/57/57 106/54/54
f 106/54/54 108/57/57 98/56/56
f 108/57/57 99/36/36 98/56/56
f 102/39/39 84/38/38 107/55/55
f 84/38/38 83/58/58 107/55/55
f 107/55/55 83/58/58 108/57/57
f 83/58/58 82/59/59 108/57/57
f 108/57/57 82/59/59 99/36/36
f 82/59/59 9/34/34 99/36/36
f 97/53/53 94/60/60 12/45/45
f 98/56/56 109/61/61 97/53/53
f 99/36/36 110/62/62 98/56/56
f 97/53/53 109/61/61 94/60/60
f 109/61/61 95/63/63 94/60/60
f 98/56/56 110/62/62 109/61/61
f 110/62/62 111/64/64 109/61/61
f 109/61/61 111/64/64 95/63/63
f 111/64/64 96/33/33 95/63/63
f 99/36/36 81/35/35 110/62/62
f 81/35/35 80/65/65 110/62/62
f 110/62/62 80/65/65 111/64/64
f 80/65/65 79/66/66 111/64/64
f 111/64/64 79/66/66 96/33/33
f 79/66/66 8/31/31 96/33/33
f 94/60/60 88/67/67 12/45/45
f 95/63/63 112/68/68 94/60/60
f 96/33/33 113/69/69 95/63/63
f 94/60/60 112/68/68 88/67/67
f 112/68/68 89/70/70 88/67/67
f 95/63/63 113/69/69 112/68/68
f 113/69/69 114/71/71 112/68/68
f 112/68/68 114/71/71 89/70/70
f 114/71/71 90/30/30 89/70/70
f 96/33/33 78/32/32 113/69/69
f 78/32/32 77/72/72 113/69/69
f 113/69/69 77/72/72 114/71/71
f 77/72/72 76/73/73 114/71/71
f 114/71/71 76/73/73 90/30/30
f 76/73/73 7/28/28 90/30/30
f 88/67/67 93/43/43 12/45/45
f 89/70/70 115/74/74 88/67/67
f 90/30/30 116/75/75 89/70/70
f 88/67/67 115/74/74 93/43/43
f 115/74/74 92/46/46 93/43/43
f 89/70/70 116/75/75 115/74/74
f 116/75/75 117/76/76 115/74/74
f 115/74/74 117/76/76 92/46/46
f 117/76/76 91/42/42 92/46/46
f 90/30/30 75/29/29 116/75/75
f 75/29/29 74/77/77 116/75/75
f 116/75/75 74/77/77 117/76/76
f 74/77/77 73/78/78 117/76/76
f 117/76/76 73/78/78 91/42/42
f 73/78/78 11/40/40 91/42/42
f 48/79/79 87/41/41 11/40/40
f 47/80/80 118/81/81 48/79/79
f 46/27/27 119/82/82 47/83/80
f 48/79/79 118/81/81 87/41/41
f 118/81/81 86/51/51 87/41/41
f 47/80/80 119/84/82 118/81/81
f 119/84/82 120/85/83 118/81/81
f 118/81/81 120/85/83 86/51/51
f 120/85/83 85/52/52 86/51/51
f 46/27/27 69/22/22 119/82/82
f 69/22/22 68/86/84 119/82/82
f 119/84/82 68/87/84 120/85/83
f 68/87/84 67/88/85 120/85/83
f 120/85/83 67/88/85 85/52/52
f 67/88/85 10/37/37 85/52/52
f 72/89/86 84/38/38 10/37/37
f 71/90/87 121/91/88 72/89/86
f 70/26/26 122/92/89 71/93/87
f 72/89/86 121/91/88 84/38/38
f 121/91/88 83/58/58 84/38/38
f 71/90/87 122/94/89 121/91/88
f 122/94/89 123/95/90 121/91/88
f 121/91/88 123/95/90 83/58/58
f 123/95/90 82/59/59 83/58/58
f 70/26/26 63/19/19 122/92/89
f 63/19/19 62/96/91 122/92/89
f 122/94/89 62/97/91 123/95/90
f 62/97/91 61/98/92 123/95/90
f 123/95/90 61/98/92 82/59/59
f 61/98/92 9/34/34 82/59/59
f 66/99/93 81/35/35 9/34/34
f 65/100/94 124/101/95 66/99/93
f 64/25/25 125/102/96 65/103/94
f 66/99/93 124/101/95 81/35/35
f 124/101/95 80/65/65 81/35/35
f 65/100/94 125/104/96 124/101/95
f 125/104/96 126/105/97 124/101/95
f 124/101/95 126/105/97 80/65/65
f 126/105/97 79/66/66 80/65/65
f 64/25/25 57/16/16 125/102/96
f 57/16/16 56/106/98 125/102/96
f 125/104/96 56/107/98 126/105/97
f 56/107/98 55/108/99 126/105/97
f 126/105/97 55/108/99 79/66/66
f 55/108/99 8/31/31 79/66/66
f 60/109/100 78/32/32 8/31/31
f 59/110/101 127/111/102 60/109/100
f 58/24/24 128/112/103 59/113/101
f 60/109/100 127/111/102 78/32/32
f 127/111/102 77/72/72 78/32/32
f 59/110/101 128/114/103 127/111/102
f 128/114/103 129/115/104 127/111/102
f 127/111/102 129/115/104 77/72/72
f 129/115/104 76/73/73 77/72/72
f 58/24/24 51/13/13 128/112/103
f 51/13/13 50/116/105 128/112/103
f 128/114/103 50/117/105 129/115/104
f 50/117/105 49/118/106 129/115/104
f 129/115/104 49/118/106 76/73/73
f 49/118/106 7/28/28 76/73/73
f 54/119/107 75/29/29 7/28/28
f 53/120/108 130/121/109 54/119/107
f 52/23/23 131/122/110 53/123/108
f 54/119/107 130/121/109 75/29/29
f 130/121/109 74/77/77 75/29/29
f 53/120/108 131/124/110 130/121/109
f 131/124/110 132/125/111 130/121/109
f 130/121/109 132/125/111 74/77/77
f 132/125/111 73/78/78 74/77/77
f 52/23/23 45/10/10 131/122/110
f 45/10/10 44/126/112 131/122/110
f 131/124/110 44/127/112 132/125/111
f 44/127/112 43/128/113 132/125/111
f 132/125/111 43/128/113 73/78/78
f 43/128/113 11/40/40 73/78/78
f 67/88/85 72/89/86 10/37/37
f 68/87/84 133/129/114 67/88/85
f 69/22/22 134/130/115 68/86/84
f 67/88/85 133/129/114 72/89/86
f 133/129/114 71/90/87 72/89/86
f 68/86/84 134/130/115 133/131/114
f 134/130/115 135/132/116 133/131/114
f 133/131/114 135/132/116 71/93/87
f 135/132/116 70/26/26 71/93/87
f 69/22/22 42/21/21 134/130/115
f 42/21/21 41/133/117 134/130/115
f 134/130/115 41/133/117 135/132/116
f 41/133/117 40/134/118 135/132/116
f 135/132/116 40/134/118 70/26/26
f 40/134/118 5/17/17 70/26/26
f 61/98/92 66/99/93 9/34/34
f 62/97/91 136/135/119 61/98/92
f 63/19/19 137/136/120 62/96/91
f 61/98/92 136/135/119 66/99/93
f 136/135/119 65/100/94 66/99/93
f 62/96/91 137/136/120 136/137/119
f 137/136/120 138/138/121 136/137/119
f 136/137/119 138/138/121 65/103/94
f 138/138/121 64/25/25 65/103/94
f 63/19/19 39/18/18 137/136/120
f 39/18/18 38/139/122 137/136/120
f 137/136/120 38/139/122 138/138/121
f 38/139/122 37/140/123 138/138/121
f 138/138/121 37/140/123 64/25/25
f 37/140/123 4/14/14 64/25/25
f 55/108/99 60/109/100 8/31/31
f 56/107/98 139/141/124 55/108/99
f 57/16/16 140/142/125 56/106/98
f 55/108/99 139/141/124 60/109/100
f 139/141/124 59/110/101 60/109/100
f 56/106/98 140/142/125 139/143/124
f 140/142/125 141/144/126 139/143/124
f 139/143/124 141/144/126 59/113/101
f 141/144/126 58/24/24 59/113/101
f 57/16/16 33/15/15 140/142/125
f 33/15/15 32/145/127 140/142/125
f 140/142/125 32/145/127 141/144/126
f 32/145/127 31/146/128 141/144/126
f 141/144/126 31/146/128 58/24/24
f 31/146/128 3/11/11 58/24/24
f 49/118/106 54/119/107 7/28/28
f 50/117/105 142/147/129 49/118/106
f 51/13/13 143/148/130 50/116/105
f 49/118/106 142/147/129 54/119/107
f 142/147/129 53/120/108 54/119/107
f 50/116/105 143/148/130 142/149/129
f 143/148/130 144/150/131 142/149/129
f 142/149/129 144/150/131 53/123/108
f 144/150/131 52/23/23 53/123/108
f 51/13/13 21/12/12 143/148/130
f 21/12/12 20/151/132 143/148/130
f 143/148/130 20/151/132 144/150/131
f 20/151/132 19/152/133 144/150/131
f 144/150/131 19/152/133 52/23/23
f 19/152/133 2/4/4 52/23/23
f 43/128/113 48/79/79 11/40/40
f 44/127/112 145/153/134 43/128/113
f 45/10/10 146/154/135 44/126/112
f 43/128/113 145/153/134 48/79/79
f 145/153/134 47/80/80 48/79/79
f 44/126/112 146/154/135 145/155/134
f 146/154/135 147/156/136 145/155/134
f 145/155/134 147/156/136 47/83/80
f 147/156/136 46/27/27 47/83/80
f 45/10/10 24/6/6 146/154/135
f 24/6/6 23/157/137 146/154/135
f 146/154/135 23/157/137 147/156/136
f 23/157/137 22/158/138 147/156/136
f 147/156/136 22/158/138 46/27/27
f 22/158/138 6/20/20 46/27/27
f 27/159/139 42/21/21 6/20/20
f 26/160/140 148/161/141 27/159/139
f 25/9/9 149/162/142 26/160/140
f 27/159/139 148/161/141 42/21/21
f 148/161/141 41/133/117 42/21/21
f 26/160/140 149/162/142 148/161/141
f 149/162/142 150/163/143 148/161/141
f 148/161/141 150/163/143 41/133/117
f 150/163/143 40/134/118 41/133/117
f 25/9/9 36/8/8 149/162/142
f 36/8/8 35/164/144 149/162/142
f 149/162/142 35/164/144 150/163/143
f 35/164/144 34/165/145 150/163/143
f 150/163/143 34/165/145 40/134/118
f 34/165/145 5/17/17 40/134/118
f 34/165/145 39/18/18 5/17/17
f 35/164/144 151/166/146 34/165/145
f 36/8/8 152/167/147 35/164/144
f 34/165/145 151/166/146 39/18/18
f 151/166/146 38/139/122 39/18/18
f 35/164/144 152/167/147 151/166/146
f 152/167/147 153/168/148 151/166/146
f 151/166/146 153/168/148 38/139/122
f 153/168/148 37/140/123 38/139/122
f 36/8/8 30/7/7 152/167/147
f 30/7/7 29/169/149 152/167/147
f 152/167/147 29/169/149 153/168/148
f 29/169/149 28/170/150 153/168/148
f 153/168/148 28/170/150 37/140/123
f 28/170/150 4/14/14 37/140/123
f 28/170/150 33/15/15 4/14/14
f 29/169/149 154/171/151 28/170/150
f 30/7/7 155/172/152 29/169/149
f 28/170/150 154/171/151 33/15/15
f 154/171/151 32/145/127 33/15/15
f 29/169/149 155/172/152 154/171/151
f 155/172/152 156/173/153 154/171/151
f 154/171/151 156/173/153 32/145/127
f 156/173/153 31/146/128 32/145/127
f 30/7/7 15/3/3 155/172/152
f 15/3/3 14/174/154 155/172/152
f 155/172/152 14/174/154 156/173/153
f 14/174/154 13/175/155 156/173/153
f 156/173/153 13/175/155 31/146/128
f 13/175/155 3/11/11 31/146/128
f 22/158/138 27/159/139 6/20/20
f 23/157/137 157/176/156 22/158/138
f 24/6/6 158/177/157 23/157/137
f 22/158/138 157/176/156 27/159/139
f 157/176/156 26/160/140 27/159/139
f 23/157/137 158/177/157 157/176/156
f 158/177/157 159/178/158 157/176/156
f 157/176/156 159/178/158 26/160/140
f 159/178/158 25/9/9 26/160/140
f 24/6/6 18/5/5 158/177/157
f 18/5/5 17/179/159 158/177/157
f 158/177/157 17/179/159 159/178/158
f 17/179/159 16/2/2 159/178/158
f 159/178/158 16/2/2 25/9/9
f 16/2/2 1/1/1 25/9/9
f 13/175/155 21/12/12 3/11/11
f 14/174/154 160/180/160 13/175/155
f 15/3/3 161/181/161 14/174/154
f 13/175/155 160/180/160 21/12/12
f 160/180/160 20/151/132 21/12/12
f 14/174/154 161/181/161 160/180/160
f 161/181/161 162/182/162 160/180/160
f 160/180/160 162/182/162 20/151/132
f 162/182/162 19/152/133 20/151/132
f 15/3/3 16/2/2 161/181/161
f 16/2/2 17/179/159 161/181/161
f 161/181/161 17/179/159 162/182/162
f 17/179/159 18/5/5 162/182/162
f 162/182/162 18/5/5 19/152/133
f 18/5/5 2/4/4 19/152/133
